<?xml version="1.0" standalone="no"?>
<!DOCTYPE svg PUBLIC "-//W3C//DTD SVG 1.1//EN" "http://www.w3.org/Graphics/SVG/1.1/DTD/svg11.dtd" >
<svg xmlns="http://www.w3.org/2000/svg">
<metadata>Generated by IcoMoon</metadata>
<defs>
<font id="icomoon" horiz-adv-x="1024">
<font-face units-per-em="1024" ascent="960" descent="-64" />
<missing-glyph horiz-adv-x="1024" />
<glyph unicode="&#x20;" horiz-adv-x="512" d="" />
<glyph unicode="&#xe900;" glyph-name="attach" horiz-adv-x="1820" d="M0 490.667c0 256 217.405 469.333 478.29 469.333h913.099c191.316 0 347.847-153.6 347.847-341.333s-156.531-341.333-347.847-341.333h-739.176c-121.747 0-217.405 93.867-217.405 213.333s95.658 213.333 217.405 213.333h652.214v-128h-652.214c-52.177 0-86.962-34.133-86.962-85.333s34.785-85.333 86.962-85.333h739.176c121.747 0 217.405 93.867 217.405 213.333s-95.658 213.333-217.405 213.333h-913.099c-191.316 0-347.847-153.6-347.847-341.333s156.531-341.333 347.847-341.333h826.137v-128h-826.137c-260.886 0-478.29 213.333-478.29 469.333z" />
<glyph unicode="&#xe901;" glyph-name="calculadora" horiz-adv-x="1075" d="M3.98 483.203h470.351v466.114h-470.351v-466.114zM97.201 757.206h100.636v99.729h82.637v-99.729h100.636v-81.892h-100.636v-99.729h-82.637v99.729h-100.636v81.892zM565.094 483.203h470.337v466.114h-470.337v-466.114zM670.255 755.906h260.017v-74.973h-260.017v74.973zM565.094-55.49h470.337v466.1h-470.337v-466.1zM800.284 24.618c-21.979 0-39.81 17.671-39.81 39.452 0 21.836 17.832 39.466 39.81 39.466 21.993 0 39.824-17.685 39.824-39.466s-17.832-39.452-39.824-39.452v0zM800.284 324.553c21.993 0 39.824-17.671 39.824-39.452s-17.832-39.466-39.824-39.466c-21.979 0-39.81 17.685-39.81 39.466-0.056 21.781 17.832 39.452 39.81 39.452v0zM670.255 215.040h260.017v-74.973h-260.017v74.973zM3.98-55.49h470.351v466.1h-470.351v-466.1zM105.537 250.285l60.225 59.683 73.365-72.704 73.365 72.704 60.267-59.683-73.365-72.759 73.365-72.704-60.267-59.669-73.365 72.704-73.365-72.704-60.225 59.669 73.365 72.704-73.365 72.759z" />
<glyph unicode="&#xe902;" glyph-name="calendar-bigger" horiz-adv-x="925" d="M709.532 402.952h-253.404v-253.204h253.404v253.204zM658.851 960v-101.282h-405.447v101.282h-101.362v-101.282h-50.681c-55.749 0-101.362-45.577-101.362-101.282v-708.971c0-55.705 45.613-101.282 101.362-101.282h709.532c55.749 0 101.362 45.577 101.362 101.282v708.971c0 55.705-45.613 101.282-101.362 101.282h-50.681v101.282h-101.362zM810.893 48.466h-709.532v557.048h709.532v-557.048z" />
<glyph unicode="&#xe903;" glyph-name="comillas" horiz-adv-x="1147" d="M452.444 960v-251.412c-125.788 0-150.856-45.22-150.856-140.739v-160.891h55.337c70.369 0 95.519-30.188 95.519-100.557v-351.928h-452.444v668.672c0 221.184 145.736 336.855 452.444 336.855v0zM1146.143 960v-251.412c-125.665 0-150.815-45.22-150.815-140.739v-160.891h55.296c70.369 0 95.519-30.188 95.519-100.557v-351.928h-452.444v668.672c0 221.184 145.777 336.855 452.444 336.855v0z" />
<glyph unicode="&#xe904;" glyph-name="documentos" horiz-adv-x="819" d="M728.178 870.633h-191.147c-18.204 53.62-68.267 89.367-127.431 89.367s-109.227-35.747-127.431-89.367h-191.147c-50.062 0-91.022-40.215-91.022-89.367v-714.938c0-49.152 40.96-89.367 91.022-89.367h637.156c50.062 0 91.022 40.215 91.022 89.367v714.938c0 49.152-40.96 89.367-91.022 89.367v0zM409.6 870.633c27.307 0 45.511-17.873 45.511-44.684s-18.204-44.684-45.511-44.684c-27.307 0-45.511 17.873-45.511 44.684s18.204 44.684 45.511 44.684v0zM728.178 66.327h-637.156v714.938h91.022v-134.051h455.111v134.051h91.022v-714.938z" />
<glyph unicode="&#xe905;" glyph-name="download" horiz-adv-x="1117" d="M572.029 960v-600.637l-176.873 176.873-68.784-68.784 294.788-294.788 294.788 294.788-68.784 68.784-176.873-176.873v600.637zM0 29.091h1117.091v-93.091h-1117.091v93.091z" />
<glyph unicode="&#xe906;" horiz-adv-x="1963" d="M432.976 138.987l-303.083 296.899-101.028-98.966 404.111-395.866 865.952 848.284-101.028 98.966z" />
<glyph unicode="&#xe907;" horiz-adv-x="1963" d="M1082.44 138.987l-201.622 161.847-101.028-98.966 302.65-260.814 865.952 848.284-101.028 98.966-764.925-749.318zM696.898 445.969l-77.208-81.927-79.567 72.515 81.927 84.287 74.848-74.874z" />
<glyph unicode="&#xe908;" glyph-name="dublecheck2" horiz-adv-x="1963" d="M432.976 138.987l-303.083 296.899-101.028-98.966 404.111-395.866 865.952 848.284-101.028 98.966zM1082.44 138.987l-201.622 161.847-101.028-98.966 302.65-260.814 865.952 848.284-101.028 98.966-764.925-749.318zM696.898 445.969l-77.208-81.927-79.567 72.515 81.927 84.287 74.848-74.874z" />
<glyph unicode="&#xe909;" horiz-adv-x="901" d="M0 946.701h884.364v-977.455h-884.364v977.455z" />
<glyph unicode="&#xe90a;" horiz-adv-x="901" d="M363.216 544.68h0.76l22.035-75.123h-46.54l23.745 75.123zM401.081 417.298l10.384-34.798h78.389l-89.533 243.836h-73.957l-90.483-243.836h75.92l11.144 34.798h78.136zM564.318 554.981v-60.111h-60.596v-52.26h60.596v-60.111h52.935v60.111h60.596v52.26h-60.596v60.111h-52.935zM447.114 192.305c169.632 0 307.414 108.476 307.414 276.561 0 168.273-137.782 304.952-307.414 304.952-51.985 0-131.64-24.748-143.734-35.552-12.347-10.552-8.421-35.112 14.373-24.559 22.732 10.552 82.568 31.657 129.361 31.657 153.802 0 278.731-123.928 278.731-276.498 0-152.382-124.929-248.107-278.731-248.107-153.612 0-278.794 95.725-278.794 248.107 0 48.302 25.708 123.865 34.636 133.475 9.181 9.547-13.867 34.358-22.985 17.148-9.181-17.148-40.334-95.914-40.334-150.623 0-168.085 138.036-276.561 307.478-276.561z" />
<glyph unicode="&#xe90b;" glyph-name="flecha" horiz-adv-x="1600" d="M1356.493 511.435l-358.852 358.852 89.713 89.713 512.646-512.646-512.646-512.646-89.713 89.713 358.852 358.852h-1356.493v128.161z" />
<glyph unicode="&#xe90c;" glyph-name="forum" horiz-adv-x="1057" d="M1005.443 755.2h-103.179v-460.8h-670.666v-102.4c0-30.72 20.636-51.2 51.59-51.2h567.487l206.359-204.8v768c0 30.72-20.636 51.2-51.59 51.2v0zM799.084 448v460.8c0 30.72-20.636 51.2-51.59 51.2h-670.666c-30.954 0-51.59-20.48-51.59-51.2v-716.8l206.359 204.8h515.897c30.954 0 51.59 20.48 51.59 51.2v0z" />
<glyph unicode="&#xe90d;" glyph-name="logo" horiz-adv-x="1001" d="M801.8 850.413c58.685-71.44 93.478-160.288 93.478-257.36 0-212.635-167.005-386.080-376.847-395.627 85.232 52.306 143.434 144.765 147.617 252.186 3.982 103.329-42.918 196.791-118.255 256.117-46.256 36.663-74.854 94.224-72.401 157.761 1.166 32.932 10.82 63.778 26.708 90.253l-3.62 6.258c-94.523-50.983-159-147.573-163.505-260.85-3.902-103.048 42.676-196.349 117.772-255.635 46.337-36.582 75.418-94.424 73.044-158.122-1.327-32.17-10.418-62.334-25.501-88.287-218.329 0-395.027 177.216-395.027 395.948 0 97.072 34.833 185.92 92.633 254.793l-3.137 6.739c-119.582-92.699-194.758-235.459-194.758-396.028 0-276.815 224-501.323 500.29-501.323 276.209 0 500.169 224.508 500.169 501.323 0 160.569-75.176 303.329-192.224 395.146l-6.436-3.289z" />
<glyph unicode="&#xe90e;" glyph-name="mail" horiz-adv-x="1182" d="M1181.534 884.885v9.679h-1181.534v-20.473l590.767-424.916c0 0 383.004 306.736 574.383 425.54 5.461 3.39 14.591 9.058 19.997 12.413zM1181.534 785.944v-791.597h-1181.534v781.956l590.767-444.375c0 0 204.478 157.145 306.717 235.718 94.683 72.766 281.454 216.303 291.625 224.119z" />
<glyph unicode="&#xe90f;" glyph-name="pdn" d="M302.080 545.28l-71.68-71.68 230.4-230.4 512 512-71.68 71.68-440.32-440.32-158.72 158.72zM921.6 448c0-225.28-184.32-409.6-409.6-409.6s-409.6 184.32-409.6 409.6c0 225.28 184.32 409.6 409.6 409.6 40.96 0 76.8-5.12 112.64-15.36l81.92 81.92c-61.44 20.48-128 35.84-194.56 35.84-281.6 0-512-230.4-512-512s230.4-512 512-512c281.6 0 512 230.4 512 512h-102.4z" />
<glyph unicode="&#xe910;" glyph-name="phone" d="M198.531 513.677c77.207-153.247 209.561-279.128 363.974-361.225l121.325 120.408c16.544 16.419 38.603 21.892 55.148 10.946 60.662-21.892 126.84-32.839 198.531-32.839 33.089 0 55.148-21.892 55.148-54.731v-186.086c0-32.839-22.059-54.731-55.148-54.731-518.388 0-937.509 415.956-937.509 930.428 0 32.839 22.059 54.731 55.148 54.731h193.017c33.089 0 55.148-21.892 55.148-54.731 0-65.677 11.030-131.354 33.089-197.032 5.515-16.419 0-38.312-11.030-54.731l-126.84-120.408z" />
<glyph unicode="&#xe911;" glyph-name="reloj" horiz-adv-x="1126" d="M512 960c188.632 0 355.705-102.4 441.937-258.695l123.958 123.958v-350.316h-350.316l150.905 150.905c-70.063 134.737-204.8 226.358-366.484 226.358-220.968 0-404.211-183.242-404.211-404.211s183.242-404.211 404.211-404.211c177.853 0 323.368 113.179 382.653 269.474h113.179c-59.284-215.579-258.695-377.263-495.832-377.263-285.642 0-512 231.747-512 512s231.747 512 512 512v0zM458.105 690.526v-274.863l253.305-150.905 43.116 70.063-215.579 129.347v226.358h-80.842z" />
<glyph unicode="&#xe912;" horiz-adv-x="739" d="M0 943.746h738.835v-1007.746h-738.835v1007.746z" />
<glyph unicode="&#xe913;" horiz-adv-x="739" d="M0-53.108v1013.108h738.158v-1013.108h-738.158zM43.075-10.337h652.009v927.566h-652.009v-927.566z" />
<glyph unicode="&#xe914;" horiz-adv-x="739" d="M145.392 396.715h468.723v43.767h-468.723z" />
<glyph unicode="&#xe915;" horiz-adv-x="739" d="M145.392 295.118h468.723v43.767h-468.723z" />
<glyph unicode="&#xe916;" horiz-adv-x="739" d="M145.392 193.521h468.723v43.767h-468.723z" />
<glyph unicode="&#xe917;" horiz-adv-x="739" d="M145.392 99.847h468.723v43.767h-468.723z" />
<glyph unicode="&#xe918;" horiz-adv-x="739" d="M378.939 721.004h0.501l14.539-49.616h-30.708l15.667 49.616zM403.923 636.872l6.852-22.983h51.723l-59.076 161.045h-48.798l-59.703-161.045h50.093l7.353 22.983h51.556z" />
<glyph unicode="&#xe919;" horiz-adv-x="739" d="M511.63 727.808v-39.701h-39.983v-34.516h39.983v-39.701h34.928v39.701h39.983v34.516h-39.983v39.701z" />
<glyph unicode="&#xe91a;" horiz-adv-x="739" d="M434.297 488.273c111.927 0 202.839 71.645 202.839 182.659 0 111.139-90.912 201.41-202.839 201.41-34.301 0-86.859-16.345-94.839-23.481-8.147-6.97-5.557-23.19 9.484-16.221 14.999 6.97 54.48 20.909 85.355 20.909 101.482 0 183.913-81.85 183.913-182.618 0-100.643-82.431-163.866-183.913-163.866-101.357 0-183.955 63.223-183.955 163.866 0 31.902 16.962 81.809 22.853 88.156 6.058 6.306-9.15 22.692-15.166 11.325-6.058-11.325-26.613-63.348-26.613-99.481 0-111.014 91.079-182.659 202.881-182.659z" />
<glyph unicode="&#xe91b;" glyph-name="fb" d="M709.86 407.381l19.541 164.295h-150.983v105.074c0 47.445 12.459 79.815 75.605 79.815l80.64 0.228v147.029c-14.023 1.963-61.81 6.229-117.646 6.229-116.309 0-195.982-76.572-195.982-217.316v-121.060h-131.669v-164.295h131.669v-421.404h157.383v421.404h131.442z" />
<glyph unicode="&#xe91c;" glyph-name="go" d="M898.674 683.605h-105.244v-113.38h-52.708v113.38h-105.188v56.661h105.188v113.465h52.708v-113.465h105.244v-56.661zM369.18 72.192c-91.591 0-157.753 62.322-157.753 137.529 0 73.472 77.653 137.045 169.273 135.879 21.305-0.228 41.188-3.982 59.307-10.268 49.806-37.234 89.828-60.501 99.954-103.026 1.82-8.476 2.901-17.38 2.901-26.453 0-75.065-44.885-133.66-173.682-133.66zM262.798 673.451c-10.724 87.040 30.635 153.543 91.961 151.609 61.468-2.076 114.176-73.33 124.672-160.427 10.638-86.869-24.718-142.848-86.187-140.999-61.44 2.076-119.893 62.805-130.446 149.817zM525.084 387.726c-21.191 17.095-67.186 52.309-67.186 75.748 0 27.506 7.282 41.131 45.824 73.529 39.509 33.308 67.413 77.056 67.413 131.47 0 59.108-22.5 112.839-64.74 138.894h59.847l51.058 57.6h-228.124c-115.74 0-212.224-91.932-212.224-193.109 0-103.396 63.431-185.799 172.288-185.799 7.595 0 14.876 0.398 22.158 1.024-7.196-14.677-12.089-30.919-12.089-47.986 0-28.672 14.535-45.056 32.711-64.057-13.739 0-26.937-0.37-41.387-0.37-132.494 0-225.308-98.247-225.308-192.654 0-92.843 111.787-150.983 244.366-150.983 151.125 0 243.94 92.444 243.94 185.344 0 74.439-14.876 111.815-88.548 171.349z" />
<glyph unicode="&#xe91d;" glyph-name="tw" d="M968.448 731.662c-31.204-14.848-64.626-24.946-100.068-29.525 36.096 23.495 63.659 60.103 76.772 103.936-33.764-21.561-70.912-37.291-110.62-45.568-31.801 36.636-77.227 59.136-127.289 59.136-96.057 0-173.881-83.883-173.881-187.392 0-14.848 1.28-29.156 4.352-42.837-144.811 7.765-273.010 82.432-359.026 196.011-15.076-27.762-23.58-59.79-23.58-94.436 0-64.996 30.578-122.396 77.511-156.018-28.501 0.796-55.552 9.301-78.848 23.41v-2.418c0-91.051 59.79-166.855 139.548-184.121-14.45-4.21-30.066-6.628-45.824-6.628-11.122 0-22.215 1.252-32.796 3.556 22.158-74.61 86.3-128.74 162.617-130.361-59.477-50.347-134.628-80.27-216.235-80.27-13.995 0-27.876 0.967-41.529 2.532 77.113-53.276 168.562-84.309 267.065-84.309 320.171 0 495.417 286.009 495.417 533.988 0 8.021-0.228 16.242-0.569 24.434 34.162 26.425 63.687 59.278 86.983 96.882z" />
<glyph unicode="&#xe91e;" glyph-name="upc" horiz-adv-x="1038" d="M826.94 848.098c59.932-72.96 95.46-163.698 95.46-262.798 0-217.145-170.553-394.268-384.825-403.996 87.040 53.419 146.46 147.826 150.756 257.508 4.068 105.529-43.833 200.96-120.775 261.547-47.246 37.461-76.43 96.228-73.927 161.109 1.195 33.621 11.036 65.138 27.278 92.16l-3.698 6.372c-96.54-52.082-162.361-150.699-166.969-266.382-3.982-105.216 43.577-200.505 120.263-261.063 47.332-37.348 77.028-96.398 74.581-161.451-1.365-32.853-10.638-63.659-26.027-90.169-222.948 0-403.399 180.992-403.399 404.338 0 99.129 35.584 189.867 94.606 260.181l-3.214 6.912c-122.112-94.692-198.884-240.441-198.884-404.423 0-282.681 228.75-511.943 510.891-511.943 282.055 0 510.777 229.262 510.777 511.943 0 163.982-76.772 309.76-196.295 403.513l-6.599-3.356z" />
</font>
</defs>
</svg>
